HIERARCHY
ROOT Hips
{
	OFFSET 0.000000 0.000000 0.000000 
	CHANNELS 6 Xposition Yposition Zposition Zrotation Yrotation Xrotation
	JOINT LeftUpLeg
	{
		OFFSET 1.363060 -1.794630 0.839290 
		CHANNELS 3 Zrotation Yrotation Xrotation
		JOINT LeftLeg
		{
			OFFSET 2.448110 -6.726130 0.000000 
			CHANNELS 3 Zrotation Yrotation Xrotation
			JOINT LeftFoot
			{
				OFFSET 2.562200 -7.039590 0.000000 
				CHANNELS 3 Zrotation Yrotation Xrotation
				JOINT LeftToeBase
				{
					OFFSET 0.157640 -0.433110 2.322550 
					CHANNELS 3 Zrotation Yrotation Xrotation
					End Site
					{
						OFFSET 0.000000 0.000000 0.000000 
					}
				}
			}
		}
	}
	JOINT RightUpLeg
	{
		OFFSET -1.305520 -1.794630 0.839290 
		CHANNELS 3 Zrotation Yrotation Xrotation
		JOINT RightLeg
		{
			OFFSET -2.542530 -6.985550 0.000000 
			CHANNELS 3 Zrotation Yrotation Xrotation
			JOINT RightFoot
			{
				OFFSET -2.568260 -7.056230 0.000000 
				CHANNELS 3 Zrotation Yrotation Xrotation
				JOINT RightToeBase
				{
					OFFSET -0.164730 -0.452590 2.363150 
					CHANNELS 3 Zrotation Yrotation Xrotation
					End Site
					{
						OFFSET 0.000000 0.000000 0.000000 
					}
				}
			}
		}
	}
	JOINT Spine
	{
		OFFSET 0.028270 2.035590 -0.193380 
		CHANNELS 3 Zrotation Yrotation Xrotation
		JOINT Spine1
		{
			OFFSET 0.056720 2.048850 -0.042750 
			CHANNELS 3 Zrotation Yrotation Xrotation
			JOINT Neck1
			{
				OFFSET -0.054170 1.746240 0.172020 
				CHANNELS 3 Zrotation Yrotation Xrotation
				JOINT Head
				{
					OFFSET 0.104070 1.761360 -0.123970 
					CHANNELS 3 Zrotation Yrotation Xrotation
					End Site
					{
						OFFSET 0.000000 0.000000 0.000000 
					}
				}
			}
			JOINT LeftArm
			{
				OFFSET 3.362410 1.200890 -0.311210 
				CHANNELS 3 Zrotation Yrotation Xrotation
				JOINT LeftForeArm
				{
					OFFSET 4.983000 -0.000000 -0.000000 
					CHANNELS 3 Zrotation Yrotation Xrotation
					JOINT LeftHand
					{
						OFFSET 3.483560 -0.000000 -0.000000 
						CHANNELS 3 Zrotation Yrotation Xrotation
						JOINT LeftHandIndex1
						{
							OFFSET 0.715260 -0.000000 -0.000000 
							CHANNELS 3 Zrotation Yrotation Xrotation
							End Site
							{
								OFFSET 0.000000 0.000000 0.000000 
							}
						}
					}
				}
			}
			JOINT RightArm
			{
				OFFSET -3.136600 1.374050 -0.404650 
				CHANNELS 3 Zrotation Yrotation Xrotation
				JOINT RightForeArm
				{
					OFFSET -5.241900 -0.000000 -0.000000 
					CHANNELS 3 Zrotation Yrotation Xrotation
					JOINT RightHand
					{
						OFFSET -3.444170 -0.000000 -0.000000 
						CHANNELS 3 Zrotation Yrotation Xrotation
						JOINT RightHandIndex1
						{
							OFFSET -0.622530 -0.000000 -0.000000 
							CHANNELS 3 Zrotation Yrotation Xrotation
							End Site
							{
								OFFSET 0.000000 0.000000 0.000000 
							}
						}
					}
				}
			}
		}
	}
}
MOTION
Frames: 13
Frame Time: 0.041667
-28.470044 17.478216 2.154158 124.291108 87.639196 120.197949 -17.765551 6.576478 9.758853 -1.861276 0.701980 1.325237 -1.196523 13.716817 -13.800683 0.001100 -0.213200 -0.585800 18.607896 -14.136171 18.154449 -0.510874 -2.566113 2.259750 -0.474864 -1.643537 -16.317843 -0.754900 -5.549100 15.481700 -0.627288 1.593366 -2.121388 0.207393 0.697646 1.615022 4.970901 0.244864 8.527089 -0.520900 0.615700 10.487500 -92.261260 2.201707 39.847073 14.932918 -24.603189 -3.553007 -0.338316 0.695197 15.264099 -7.125000 0.000000 0.000000 5.376212 -0.719638 0.016130 -1.219771 -0.317866 0.000219 -0.061071 0.020525 0.000110 0.000000 0.000000 0.000000 
-28.466467 17.477705 2.152932 128.073826 87.627596 124.160785 -17.545304 6.512281 9.547651 -1.858385 0.735034 1.430789 -1.204731 13.725241 -13.775727 0.005500 -0.480400 -1.320100 18.800357 -14.211451 17.962277 -0.513883 -2.540630 2.159628 -0.476766 -1.574043 -16.322939 -0.710200 -5.386000 15.012900 -0.609544 1.574690 -2.099561 0.178218 0.669182 1.862675 5.074256 0.254715 8.595672 -0.449700 0.633300 10.578700 -92.273646 1.947082 39.909203 14.790406 -24.416768 -3.499792 -0.251131 0.633419 15.371379 -7.125000 0.000000 0.000000 5.367400 -0.709282 0.015993 -1.215455 -0.316998 0.000217 -0.060968 0.020318 0.000109 0.000000 0.000000 0.000000 
-28.467591 17.474332 2.188392 83.129609 89.056722 79.265409 -17.641362 7.488339 9.807720 -1.853908 0.551560 1.046154 -1.261006 14.206431 -14.120431 0.002500 -0.322000 -0.884800 18.722825 -14.222167 17.010317 -0.564318 -2.911920 3.054272 -0.486640 -0.010952 -15.625272 -0.707500 -5.375900 14.984000 -0.620285 2.317076 -2.088941 0.524137 1.031378 1.866345 5.138893 0.197076 8.607895 -0.434400 0.615900 10.599100 -92.193284 1.905623 39.941620 14.787085 -24.426822 -3.492861 -0.335337 0.693045 15.448223 -7.125000 0.000000 0.000000 5.429496 -0.696121 0.016356 -1.242066 -0.323208 0.000222 -0.061646 0.020325 0.000111 0.000000 0.000000 0.000000 
-28.467693 17.474230 2.189925 81.911381 89.107400 78.071633 -17.624174 7.393894 9.844077 -1.858739 0.532846 1.010700 -1.266831 14.267508 -14.233152 0.000200 -0.080500 -0.221200 18.837989 -14.123030 16.979160 -0.564237 -2.926717 3.085403 -0.486065 -0.090929 -15.665229 -0.712200 -5.393300 15.033700 -0.628755 2.365281 -2.087629 0.466231 1.054560 1.875865 5.125461 0.139491 8.594061 -0.450400 0.589500 10.597400 -92.137185 1.894966 39.997320 14.800325 -24.445931 -3.507753 -0.238068 0.607880 15.564591 -7.125000 0.000000 0.000000 5.421305 -0.699097 0.016302 -1.238510 -0.322305 0.000221 -0.061590 0.020325 0.000110 0.000000 0.000000 0.000000 
-28.478117 17.474230 2.194932 88.141520 88.876068 84.315724 -17.686431 7.505018 9.544594 -1.849755 0.640265 1.231813 -1.230967 14.003648 -14.091960 0.002000 -0.290600 -0.798400 18.712720 -14.095042 17.054678 -0.562088 -2.889509 3.039639 -0.489049 -0.274516 -15.770172 -0.734100 -5.473900 15.265300 -0.612165 2.283739 -2.099331 0.649620 1.023630 1.799896 5.104787 0.192670 8.561067 -0.455100 0.604000 10.584300 -92.223386 1.170343 40.418976 13.995057 -23.316097 -3.152715 -0.364950 0.708922 15.122205 -7.125000 0.000000 0.000000 5.453095 -0.692695 0.016547 -1.252763 -0.325747 0.000224 -0.061804 0.020410 0.000112 0.000000 0.000000 0.000000 
-28.497226 17.474230 2.205764 101.589594 88.219052 97.831369 -17.768847 7.616135 8.999222 -1.832178 0.832571 1.610330 -1.177548 13.544671 -13.631225 0.008600 -0.597700 -1.642600 18.627835 -14.001726 17.170736 -0.554635 -2.830143 2.987692 -0.496219 -0.711320 -16.065075 -0.746400 -5.518400 15.393300 0.368766 2.105624 -2.358871 -1.227410 1.033322 1.781546 6.248204 0.171032 8.491804 -0.468900 0.689300 10.618900 -91.293437 -0.794714 42.260147 11.465074 -20.736670 -2.326304 -0.309390 0.741438 13.093812 -7.125000 0.000000 0.000000 90.389019 -6.779713 32.742042 -20.931568 35.456195 -5.787770 0.492596 -2.814003 -1.912477 7.125000 0.000000 0.000000 
-28.506219 17.473413 2.213326 107.756257 88.051514 104.006215 -17.677332 7.615407 8.814521 -1.822489 0.892368 1.757289 -1.159851 13.349372 -13.375076 0.013400 -0.747700 -2.054800 18.792412 -13.891459 17.216542 -0.547440 -2.804877 2.930034 -0.496988 -1.028945 -16.260753 -0.712600 -5.394700 15.038000 0.389045 1.988228 -2.383687 -1.150996 0.972270 1.662722 6.236388 0.168952 8.498586 -0.477800 0.687100 10.624400 -91.280685 -0.897662 42.479146 11.346415 -20.560725 -2.284121 -0.315459 0.742923 12.931604 -7.125000 0.000000 0.000000 90.409023 -6.770893 32.634575 -20.887383 35.397482 -5.768651 0.481704 -2.809660 -1.722118 7.125000 0.000000 0.000000 
-28.505708 17.472493 2.214961 106.064784 88.139428 102.335137 -17.606755 7.658636 8.796011 -1.820608 0.880278 1.734300 -1.161500 13.356611 -13.387694 0.012500 -0.721000 -1.981300 18.885686 -13.800854 17.226046 -0.549479 -2.788702 2.882082 -0.492915 -1.070637 -16.223280 -0.719100 -5.419100 15.107700 0.397547 2.034990 -2.385790 -1.108363 0.995431 1.655943 6.240194 0.142031 8.492968 -0.468500 0.670400 10.610700 -91.342300 -0.947928 42.397701 11.272976 -20.456443 -2.258589 -0.306526 0.744021 13.137524 -7.125000 0.000000 0.000000 90.391931 -6.802144 32.540345 -20.924742 35.429762 -5.782063 0.493864 -2.807475 -1.759162 7.125000 0.000000 0.000000 
-28.505197 17.471471 2.214757 103.981319 88.261102 100.276738 -17.547795 7.622726 8.813131 -1.823573 0.855775 1.680357 -1.173269 13.445888 -13.467882 0.005500 -0.476900 -1.310400 18.979197 -13.739139 17.170574 -0.553526 -2.798951 2.902343 -0.490103 -1.018570 -16.149770 -0.753700 -5.544900 15.469500 0.395567 2.098559 -2.381885 -1.148504 1.029641 1.672347 6.223761 0.123431 8.469527 -0.481900 0.659400 10.592200 -91.351307 -0.988162 42.288320 11.241485 -20.411061 -2.247853 -0.295235 0.744932 13.377449 -7.125000 0.000000 0.000000 90.439300 -6.797496 32.410870 -20.938046 35.454511 -5.792709 0.502297 -2.813845 -1.732838 7.125000 0.000000 0.000000 
-28.502847 17.467383 2.213837 103.691883 88.427741 100.066254 -17.396238 7.542968 8.804274 -1.825660 0.834083 1.637966 -1.191979 13.561358 -13.516456 0.004100 -0.415000 -1.140200 19.193407 -13.756079 17.009113 -0.554344 -2.825147 2.952467 -0.488998 -1.013024 -16.139562 -0.726600 -5.446500 15.186500 0.409284 2.108955 -2.379549 -1.197963 1.034824 1.734383 6.149503 0.153845 8.469218 -0.535300 0.669600 10.594600 -91.367385 -1.039644 42.096312 11.225748 -20.392695 -2.243375 -0.296846 0.743973 13.296725 -7.125000 0.000000 0.000000 90.434245 -6.759924 32.458370 -20.928341 35.451045 -5.790153 0.497324 -2.813996 -1.672373 7.125000 0.000000 0.000000 
-28.406890 17.493135 2.164173 51.161413 89.080390 46.933553 -17.912302 7.229258 11.650876 -1.905274 0.051622 -0.007333 -1.391664 15.492081 -15.553440 0.001400 0.243000 0.667500 18.472826 -14.483830 17.141053 -0.566785 -3.074758 3.287185 -0.467756 1.066853 -15.023002 -0.688400 -5.304300 14.778500 0.373870 2.676689 -2.165936 -1.545994 1.161287 2.543237 6.153185 0.208929 8.581128 -0.500600 0.699000 10.603700 -91.399549 -1.023451 41.929299 11.221019 -20.420755 -2.238626 -0.307810 0.734404 12.929223 -7.125000 0.000000 0.000000 90.340161 -6.893785 32.640932 -20.968974 35.556286 -5.817146 0.496327 -2.817498 -1.726131 7.125000 0.000000 0.000000 
-28.408628 17.492420 2.166217 54.279224 88.849024 50.084601 -18.160544 7.288398 11.510605 -1.906512 0.097607 0.052831 -1.371338 15.387794 -15.539197 0.003000 0.351400 0.965600 18.147421 -14.475240 17.172283 -0.573515 -3.051614 3.279206 -0.471855 1.166166 -15.021004 -0.717300 -5.412300 15.088300 0.342831 2.708308 -2.176803 -1.517432 1.194508 2.504255 6.220976 0.189671 8.563072 -0.457400 0.694400 10.592300 -91.327001 -1.015895 41.948499 11.246441 -20.454481 -2.247518 -0.299743 0.732681 12.666827 -7.125000 0.000000 0.000000 90.381072 -6.929606 32.592124 -21.044896 35.638074 -5.851970 0.505223 -2.822584 -1.797951 7.125000 0.000000 0.000000 
-28.409445 17.491194 2.166319 54.617528 88.819608 50.446697 -18.124246 7.438916 11.403194 -1.898151 0.116260 0.092919 -1.359478 15.268748 -15.382710 0.000700 0.175500 0.482300 18.229391 -14.257925 17.217254 -0.574180 -3.041036 3.268624 -0.477493 1.004445 -15.167804 -0.710500 -5.386900 15.015500 0.343597 2.715573 -2.171196 -1.498246 1.199244 2.527218 6.178397 0.165406 8.511413 -0.488500 0.674800 10.555400 -91.344700 -1.092129 41.870289 11.214089 -20.411194 -2.237282 -0.301712 0.736878 12.740064 -7.125000 0.000000 0.000000 90.392132 -6.873307 32.504244 -21.008183 35.598522 -5.831330 0.506846 -2.816226 -1.840041 7.125000 0.000000 0.000000 
